<?xml version="1.0" standalone="no"?>
<!DOCTYPE svg PUBLIC "-//W3C//DTD SVG 20010904//EN"
 "http://www.w3.org/TR/2001/REC-SVG-20010904/DTD/svg10.dtd">
<svg version="1.0" xmlns="http://www.w3.org/2000/svg"
 width="512.000000pt" height="512.000000pt" viewBox="0 0 512.000000 512.000000"
 preserveAspectRatio="xMidYMid meet">
<metadata>
Created by potrace 1.13, written by Peter Selinger 2001-2015
</metadata>
<g transform="translate(0.000000,512.000000) scale(0.100000,-0.100000)"
fill="#000000" stroke="none">
<path d="M886 5046 c-105 -39 -207 -144 -242 -248 -26 -78 -16 -178 26 -256
66 -124 183 -201 317 -210 l74 -5 29 -57 c36 -72 70 -100 120 -100 47 0 85 29
101 77 11 33 9 41 -28 114 l-40 78 24 23 c13 12 38 52 56 87 28 58 32 75 32
151 0 73 -4 93 -28 141 -34 70 -106 145 -178 184 -45 24 -67 30 -139 32 -57 2
-98 -2 -124 -11z m191 -213 c70 -33 95 -165 45 -233 -44 -59 -169 -74 -228
-28 -78 62 -68 219 17 261 44 21 121 22 166 0z"/>
<path d="M3923 5046 c-212 -52 -384 -262 -383 -470 1 -80 14 -138 50 -208 l29
-57 -536 -568 c-294 -312 -550 -583 -568 -601 l-32 -34 -86 42 c-141 68 -268
82 -414 45 -59 -15 -57 -16 -102 72 -37 73 -114 95 -170 47 -49 -41 -51 -82
-7 -165 l37 -70 -69 -74 c-75 -80 -132 -182 -157 -280 -20 -77 -19 -212 1
-293 15 -58 15 -64 0 -75 -9 -7 -142 -88 -295 -180 l-278 -168 -51 35 c-151
101 -325 84 -455 -46 -112 -112 -142 -259 -80 -390 39 -84 113 -160 191 -196
49 -23 70 -27 147 -27 84 0 95 2 153 34 75 41 140 110 179 189 24 48 28 70 28
138 l0 81 293 177 292 178 66 -60 c115 -106 272 -172 411 -172 l62 0 11 -38
c5 -20 39 -152 75 -292 35 -140 89 -350 118 -466 l55 -211 -59 -43 c-147 -107
-229 -294 -202 -457 36 -205 212 -381 416 -415 294 -49 592 249 546 545 -34
215 -221 395 -442 422 l-55 7 -46 182 c-25 99 -82 323 -126 496 -44 173 -80
318 -80 322 0 3 24 20 53 36 28 16 80 55 114 86 l61 56 60 -35 c81 -47 122
-47 169 0 32 32 35 40 30 76 -6 49 -25 70 -94 110 -29 17 -53 34 -53 39 0 5 7
35 15 67 8 31 15 99 15 150 0 109 -29 214 -85 307 -20 32 -35 62 -33 66 2 5
248 268 548 585 300 317 552 585 562 596 16 18 17 18 80 -11 130 -60 264 -59
393 5 89 43 152 99 204 176 60 90 84 179 79 288 -6 121 -50 216 -145 310 -131
129 -281 175 -440 137z m230 -228 c158 -68 199 -317 73 -442 -51 -52 -116 -76
-202 -76 -87 0 -138 21 -195 81 -82 86 -100 201 -49 315 26 59 43 79 96 110
80 47 183 51 277 12z m-1892 -1834 c70 -21 112 -47 173 -108 70 -71 106 -153
113 -263 7 -102 -7 -163 -57 -255 -72 -132 -228 -209 -396 -195 -182 16 -313
118 -364 285 -73 235 45 465 275 538 57 18 191 17 256 -2z m-1496 -1098 c68
-29 101 -155 58 -228 -51 -88 -211 -91 -264 -4 -23 38 -26 134 -5 175 33 63
132 90 211 57z m2020 -1130 c101 -47 151 -141 143 -270 -10 -156 -107 -245
-264 -246 -125 0 -205 43 -251 137 -35 72 -38 183 -6 254 27 61 86 116 142
134 74 22 177 19 236 -9z"/>
<path d="M1327 4004 c-55 -55 -50 -74 68 -292 59 -108 117 -205 128 -214 46
-36 117 -25 151 23 34 49 22 87 -84 281 -55 101 -112 193 -126 206 -37 32
-103 31 -137 -4z"/>
<path d="M3134 2069 c-51 -25 -69 -107 -34 -152 24 -30 445 -275 488 -283 87
-17 153 96 98 168 -7 10 -115 76 -239 148 -231 133 -260 144 -313 119z"/>
<path d="M4357 1630 c-47 -12 -114 -46 -151 -77 l-28 -24 -47 28 c-103 60
-113 63 -161 38 -40 -21 -60 -53 -60 -96 0 -47 24 -76 96 -117 l59 -33 0 -77
c0 -65 5 -87 31 -142 39 -83 111 -155 194 -194 130 -62 269 -35 383 73 99 94
141 220 112 333 -49 193 -254 331 -428 288z m160 -230 c43 -26 63 -68 63 -133
0 -40 -6 -63 -23 -88 -30 -45 -60 -59 -131 -59 -99 0 -148 47 -150 144 -1 58
29 121 68 140 45 22 134 20 173 -4z"/>
</g>
</svg>
